<svg xmlns="http://www.w3.org/2000/svg" viewBox="0 0 100 100" role="img" aria-label="Palace of Westminster">
  <rect x="4" y="4" width="92" height="92" rx="20" fill="#33415C"/>
  <!-- buildings (cream) -->
  <g transform="translate(9,16) scale(0.82)" fill="#FAF7F1">
    <!-- Victoria Tower -->
    <rect x="10" y="22" width="20" height="44"/>
    <rect x="10" y="18" width="4" height="5"/>
    <rect x="18" y="18" width="4" height="5"/>
    <rect x="26" y="18" width="4" height="5"/>
    <rect x="19.2" y="9" width="1.6" height="10"/>
    <path d="M20.8 9 L29 11.5 L20.8 14 Z"/>
    <!-- Main hall -->
    <rect x="30" y="44" width="34" height="22"/>
    <path d="M32 44 L35 38 L38 44 Z"/>
    <path d="M40 44 L43 38 L46 44 Z"/>
    <path d="M48 44 L51 38 L54 44 Z"/>
    <path d="M56 44 L59 38 L62 44 Z"/>
    <!-- Elizabeth Tower (Big Ben) -->
    <rect x="66" y="30" width="16" height="36"/>
    <rect x="67" y="26" width="14" height="4"/>
    <path d="M66 26 L82 26 L74 8 Z"/>
    <rect x="73.2" y="3" width="1.6" height="5"/>
    <circle cx="74" cy="6" r="1.6"/>
  </g>
  <!-- windows + clock (navy cut-outs) -->
  <g transform="translate(9,16) scale(0.82)" fill="#33415C">
    <rect x="14" y="30" width="2.6" height="8" rx="1.3"/>
    <rect x="18.7" y="30" width="2.6" height="8" rx="1.3"/>
    <rect x="23.4" y="30" width="2.6" height="8" rx="1.3"/>
    <rect x="14" y="48" width="2.6" height="10" rx="1.3"/>
    <rect x="18.7" y="48" width="2.6" height="10" rx="1.3"/>
    <rect x="23.4" y="48" width="2.6" height="10" rx="1.3"/>
    <rect x="34" y="50" width="3" height="12" rx="1.5"/>
    <rect x="41" y="50" width="3" height="12" rx="1.5"/>
    <rect x="48" y="50" width="3" height="12" rx="1.5"/>
    <rect x="55" y="50" width="3" height="12" rx="1.5"/>
    <circle cx="74" cy="40" r="4.6"/>
  </g>
</svg>
